<?xml version="1.0" encoding="utf-8"?>
<!-- Generator: Adobe Illustrator 16.0.0, SVG Export Plug-In . SVG Version: 6.00 Build 0)  -->
<!DOCTYPE svg PUBLIC "-//W3C//DTD SVG 1.1//EN" "http://www.w3.org/Graphics/SVG/1.1/DTD/svg11.dtd">
<svg version="1.1" id="Layer_1" xmlns="http://www.w3.org/2000/svg" xmlns:xlink="http://www.w3.org/1999/xlink" x="0px" y="0px"
	 width="40px" height="40px" viewBox="0 0 40 40" enable-background="new 0 0 40 40" xml:space="preserve">
<circle fill="#FFFFFF" cx="20" cy="20" r="20"/>
<path fill="#1F1F1F" d="M20,23.605c2.905,0,5.261-2.355,5.261-5.261V9.744c0-2.905-2.355-5.261-5.261-5.261
	s-5.261,2.355-5.261,5.261v8.601C14.739,21.25,17.095,23.605,20,23.605z"/>
<path fill="#1F1F1F" d="M27.489,15.65v3.226c0,4.129-3.359,7.491-7.489,7.491c-4.129,0-7.488-3.361-7.488-7.491V15.65h-2v3.226
	c0,4.905,3.738,8.95,8.514,9.44v8.451h2v-8.459c4.751-0.512,8.464-4.545,8.464-9.432V15.65H27.489z"/>
</svg>
